<?xml version="1.0" encoding="utf-8"?>
<!-- Generator: Adobe Illustrator 26.0.1, SVG Export Plug-In . SVG Version: 6.00 Build 0)  -->
<svg version="1.1" id="Raw" xmlns="http://www.w3.org/2000/svg" xmlns:xlink="http://www.w3.org/1999/xlink" x="0px" y="0px"
	 viewBox="0 0 256 256" style="enable-background:new 0 0 256 256;" xml:space="preserve">
<style type="text/css">
	.st0{fill:#FFFFFF;}
</style>
<path class="st0" d="M132,224H47.7C39,224,32,217,32,208.3V124C32,68.9,76.9,24,132,24s100,44.9,100,100S187.1,224,132,224z M48,208
	h84c46.3,0,84-37.7,84-84s-37.7-84-84-84s-84,37.7-84,84V208z"/>
<path class="st0" d="M160,120h-60c-4.4,0-8-3.6-8-8s3.6-8,8-8h60c4.4,0,8,3.6,8,8S164.4,120,160,120z"/>
<path class="st0" d="M160,152h-60c-4.4,0-8-3.6-8-8s3.6-8,8-8h60c4.4,0,8,3.6,8,8S164.4,152,160,152z"/>
</svg>
