<?xml version="1.0" encoding="utf-8"?>
<!-- Generator: Adobe Illustrator 26.0.1, SVG Export Plug-In . SVG Version: 6.00 Build 0)  -->
<svg version="1.1" id="Raw" xmlns="http://www.w3.org/2000/svg" xmlns:xlink="http://www.w3.org/1999/xlink" x="0px" y="0px"
	 viewBox="0 0 256 256" style="enable-background:new 0 0 256 256;" xml:space="preserve">
<style type="text/css">
	.st0{fill:#FFFFFF;}
</style>
<path class="st0" d="M64,176c-1.8,0-3.6-0.6-5.1-1.9l-48-40C9.1,132.6,8,130.4,8,128s1.1-4.6,2.9-6.1l48-40c3.4-2.8,8.4-2.4,11.3,1
	c2.8,3.4,2.4,8.4-1,11.3L28.5,128l40.6,33.9c3.4,2.8,3.9,7.9,1,11.3C68.6,175,66.3,176,64,176z"/>
<path class="st0" d="M192,176c-2.3,0-4.6-1-6.1-2.9c-2.8-3.4-2.4-8.4,1-11.3l40.6-33.9L186.9,94c-3.4-2.8-3.9-7.9-1-11.3
	c2.8-3.4,7.9-3.9,11.3-1l48,40c1.8,1.5,2.9,3.8,2.9,6.1s-1.1,4.6-2.9,6.1l-48,40C195.6,175.4,193.8,176,192,176z"/>
<path class="st0" d="M96,224c-0.9,0-1.8-0.2-2.7-0.5c-4.2-1.5-6.3-6.1-4.8-10.3l64-176c1.5-4.2,6.1-6.3,10.3-4.8s6.3,6.1,4.8,10.3
	l-64,176C102.3,222,99.3,224,96,224z"/>
</svg>
