<?xml version="1.0" encoding="utf-8"?>
<!-- Generator: Adobe Illustrator 26.0.1, SVG Export Plug-In . SVG Version: 6.00 Build 0)  -->
<svg version="1.1" id="Raw" xmlns="http://www.w3.org/2000/svg" xmlns:xlink="http://www.w3.org/1999/xlink" x="0px" y="0px"
	 viewBox="0 0 256 256" style="enable-background:new 0 0 256 256;" xml:space="preserve">
<style type="text/css">
	.st0{fill:#FFFFFF;}
</style>
<path class="st0" d="M204,220h-68.4c-4.4,0-8-3.6-8-8s3.6-8,8-8H204V52H52v91.3c0,4.4-3.6,8-8,8s-8-3.6-8-8V52c0-8.8,7.2-16,16-16
	h152c8.8,0,16,7.2,16,16v152C220,212.8,212.8,220,204,220z"/>
<path class="st0" d="M64,224c-2,0-4.1-0.8-5.7-2.3l-32-32c-3.1-3.1-3.1-8.2,0-11.3s8.2-3.1,11.3,0L64,204.7l58.3-58.3
	c3.1-3.1,8.2-3.1,11.3,0s3.1,8.2,0,11.3l-64,64C68.1,223.2,66,224,64,224z"/>
<path class="st0" d="M160,88.5H96c-4.4,0-8-3.6-8-8s3.6-8,8-8h64c4.4,0,8,3.6,8,8S164.4,88.5,160,88.5z"/>
<path class="st0" d="M160,120.5H96c-4.4,0-8-3.6-8-8s3.6-8,8-8h64c4.4,0,8,3.6,8,8S164.4,120.5,160,120.5z"/>
</svg>
