<?xml version="1.0" encoding="utf-8"?>
<!-- Generator: Adobe Illustrator 26.0.1, SVG Export Plug-In . SVG Version: 6.00 Build 0)  -->
<svg version="1.1" id="Raw" xmlns="http://www.w3.org/2000/svg" xmlns:xlink="http://www.w3.org/1999/xlink" x="0px" y="0px"
	 viewBox="0 0 256 256" style="enable-background:new 0 0 256 256;" xml:space="preserve">
<style type="text/css">
	.st0{fill:#FFFFFF;}
</style>
<path d="M224.9,107.7c0.5,0,1-0.1,1.5-0.3C226,107.5,225.5,107.6,224.9,107.7z"/>
<path class="st0" d="M232.2,51.7v48c0,0.3,0,0.5,0,0.8c0,0.3-0.1,0.5-0.1,0.8c-0.1,0.2-0.1,0.5-0.2,0.7c0,0,0,0.1,0,0.1
	c-0.1,0.2-0.2,0.4-0.2,0.6c-0.1,0.2-0.2,0.5-0.3,0.7c-0.1,0.2-0.2,0.4-0.3,0.5c0,0.1-0.1,0.1-0.1,0.2c0,0,0,0,0,0.1
	c-0.1,0.2-0.2,0.3-0.4,0.5c0,0,0,0,0,0c-0.2,0.2-0.3,0.4-0.5,0.6s-0.4,0.3-0.6,0.5c0,0,0,0,0,0c-0.2,0.2-0.4,0.3-0.6,0.4
	c0,0-0.1,0.1-0.1,0.1c-0.2,0.1-0.4,0.3-0.6,0.4c-0.2,0.1-0.4,0.2-0.6,0.3c-0.1,0-0.1,0-0.1,0c-0.2,0.1-0.5,0.2-0.7,0.2
	c-0.5,0.1-1,0.2-1.5,0.3c-0.2,0-0.5,0-0.8,0h-48c-4.4,0-8-3.6-8-8c0-4.4,3.6-8,8-8h28.7l-20.3-20.3c-31.2-31.2-82-31.2-113.1,0
	c-3.1,3.1-8.2,3.1-11.3,0c-3.1-3.1-3.1-8.2,0-11.3c37.4-37.4,98.3-37.4,135.8,0l20.3,20.3V51.7c0-4.4,3.6-8,8-8
	C228.6,43.7,232.2,47.3,232.2,51.7z"/>
<path d="M24.4,153.3c0.2-0.5,0.4-1,0.7-1.4C24.9,152.3,24.6,152.8,24.4,153.3z"/>
<path d="M25.2,151.8c0.3-0.4,0.6-0.8,1-1.2C25.8,151,25.5,151.4,25.2,151.8z"/>
<path d="M26.2,150.6c0.4-0.4,0.8-0.7,1.2-1C26.9,149.9,26.5,150.3,26.2,150.6z"/>
<path d="M29.6,148.6c0.5-0.1,1-0.2,1.5-0.3C30.6,148.4,30,148.5,29.6,148.6z"/>
<path class="st0" d="M195.9,195.9C177.2,214.6,152.6,224,128,224s-49.2-9.4-67.9-28.1l-20.3-20.3v28.7c0,4.4-3.6,8-8,8
	c-4.4,0-8-3.6-8-8v-48c0-0.3,0-0.5,0-0.8c0-0.3,0.1-0.5,0.1-0.8c0.1-0.2,0.1-0.5,0.2-0.7c0,0,0-0.1,0-0.1c0.1-0.2,0.2-0.4,0.2-0.6
	c0.2-0.5,0.4-1,0.7-1.4c0,0,0,0,0-0.1c0.3-0.4,0.6-0.8,1-1.2s0.8-0.7,1.2-1c0,0,0.1-0.1,0.1-0.1c0.2-0.1,0.4-0.3,0.6-0.4
	c0.2-0.1,0.5-0.2,0.7-0.3c0.2-0.1,0.5-0.2,0.7-0.3c0.5-0.1,1-0.2,1.5-0.3c0.2,0,0.5,0,0.8,0h48c4.4,0,8,3.6,8,8c0,4.4-3.6,8-8,8
	H51.1l20.3,20.3c31.2,31.2,82,31.2,113.1,0c3.1-3.1,8.2-3.1,11.3,0C199,187.7,199,192.8,195.9,195.9z"/>
</svg>
