<?xml version="1.0" encoding="utf-8"?>
<!-- Generator: Adobe Illustrator 26.0.1, SVG Export Plug-In . SVG Version: 6.00 Build 0)  -->
<svg version="1.1" id="Raw" xmlns="http://www.w3.org/2000/svg" xmlns:xlink="http://www.w3.org/1999/xlink" x="0px" y="0px"
	 viewBox="0 0 256 256" style="enable-background:new 0 0 256 256;" xml:space="preserve">
<style type="text/css">
	.st0{fill:#FFFFFF;}
</style>
<path class="st0" d="M224,79.6C223.6,48.4,181.6,24,128,24S32.4,48.4,32,79.6c0,0.1,0,0.3,0,0.4v96c0,31.4,42.2,56,96,56
	s96-24.6,96-56V80C224,79.9,224,79.7,224,79.6z M128,40c43.4,0,80,18.3,80,40s-36.6,40-80,40s-80-18.3-80-40S84.6,40,128,40z
	 M48,111.4c17.1,15,46.2,24.6,80,24.6s62.9-9.7,80-24.6V128c0,21.7-36.6,40-80,40s-80-18.3-80-40V111.4z M208,176
	c0,21.7-36.6,40-80,40s-80-18.3-80-40v-16.6c17.1,15,46.2,24.6,80,24.6s62.9-9.7,80-24.6V176z"/>
</svg>
