<?xml version="1.0" encoding="utf-8"?>
<!-- Generator: Adobe Illustrator 26.0.1, SVG Export Plug-In . SVG Version: 6.00 Build 0)  -->
<svg version="1.1" id="Raw" xmlns="http://www.w3.org/2000/svg" xmlns:xlink="http://www.w3.org/1999/xlink" x="0px" y="0px"
	 viewBox="0 0 256 256" style="enable-background:new 0 0 256 256;" xml:space="preserve">
<style type="text/css">
	.st0{fill:none;}
	.st1{fill:#FFFFFF;}
</style>
<rect class="st0" width="256" height="256"/>
<path class="st1" d="M128,192c-35.3,0-64-28.7-64-64s28.7-64,64-64s64,28.7,64,64S163.3,192,128,192z M128,80c-26.5,0-48,21.5-48,48
	s21.5,48,48,48s48-21.5,48-48S154.5,80,128,80z"/>
<path class="st1" d="M100,235.7c-1.5,0-3.1-0.2-4.6-0.7c-7-2.1-13.7-4.9-20-8.3c-4.3-2.4-7.3-6.4-8.2-11.2L64,199.7l-7.9-7.9
	l-15.9-3.2c-4.7-0.9-8.7-3.9-11.1-8.1c-3.4-6.4-6.2-13.1-8.3-20c-1.4-4.7-0.6-9.7,2.1-13.7l8.9-13.4v-11.2L23,109
	c-2.7-4-3.4-8.9-2.1-13.5c2.1-7,4.9-13.7,8.3-20c2.4-4.3,6.4-7.3,11.2-8.2l15.8-3.2l7.9-7.9l3.2-15.9c0.9-4.7,3.9-8.7,8.1-11.1
	c6.4-3.4,13.1-6.2,20-8.3c4.7-1.4,9.7-0.6,13.7,2.1l13.4,8.9h11.2l13.4-9c4-2.7,8.9-3.4,13.5-2.1c7,2.1,13.7,4.9,20,8.3
	c4.3,2.4,7.3,6.4,8.2,11.2l3.2,15.8l7.9,7.9l15.9,3.2c4.7,0.9,8.7,3.9,11.1,8.1c3.4,6.4,6.2,13.1,8.3,20c1.4,4.7,0.6,9.7-2.1,13.7
	l-8.9,13.4v11.2l9,13.4c2.7,4,3.4,8.9,2.1,13.5c-2.1,7-4.9,13.7-8.3,20c-2.4,4.3-6.4,7.3-11.2,8.2l-15.8,3.2l-7.9,7.9l-3.2,15.9
	c-0.9,4.7-3.8,8.7-8.1,11.1c-6.4,3.4-13.1,6.2-20,8.3c-4.7,1.4-9.7,0.6-13.7-2.1l-13.4-8.9h-11.2l-13.4,9
	C106.3,234.8,103.2,235.7,100,235.7z M43.3,173.1C43.3,173.1,43.4,173.1,43.3,173.1l18.4,3.7c1.5,0.3,3,1.1,4.1,2.2l11.3,11.3
	c1.1,1.1,1.9,2.5,2.2,4.1l3.6,18.2c0,0.1,0,0.1,0.1,0.2c5.4,2.8,11.1,5.2,17,7c0,0,0,0,0.1,0l15.5-10.3c1.3-0.9,2.9-1.3,4.4-1.3h16
	c1.6,0,3.1,0.5,4.4,1.3l15.5,10.3c0.1,0.1,0.1,0.1,0.2,0c5.8-1.8,11.6-4.1,17-7c-0.1,0,0,0,0-0.1l3.7-18.3c0.3-1.5,1.1-3,2.2-4.1
	l11.3-11.3c1.1-1.1,2.5-1.9,4.1-2.2l18.2-3.6c0.1,0,0.1,0,0.2-0.1c2.8-5.4,5.2-11.1,7-17c0,0,0,0,0-0.1l-10.3-15.5
	c-0.9-1.3-1.3-2.9-1.3-4.4v-16c0-1.6,0.5-3.1,1.3-4.4l10.3-15.5c0.1-0.1,0.1-0.1,0-0.2c-1.8-5.8-4.1-11.6-7-17c0,0,0,0-0.1,0
	l-18.3-3.7c-1.5-0.3-3-1.1-4.1-2.2L179,65.8c-1.1-1.1-1.9-2.5-2.2-4.1l-3.6-18.2c0-0.1,0-0.1-0.1-0.2c-5.4-2.8-11.1-5.2-17-7
	c0,0,0,0-0.1,0l-15.5,10.3c-1.3,0.9-2.9,1.3-4.4,1.3h-16c-1.6,0-3.1-0.5-4.4-1.3l-15.5-10.3c-0.1-0.1-0.1-0.1-0.2,0
	c-5.8,1.8-11.6,4.1-17,7c0,0,0,0,0,0.1l-3.7,18.3c-0.3,1.5-1.1,3-2.2,4.1L65.8,77.1c-1.1,1.1-2.5,1.9-4.1,2.2l-18.2,3.6
	c-0.1,0-0.1,0-0.2,0.1c-2.8,5.4-5.2,11.1-7,17c0,0,0,0,0,0.1l10.3,15.5c0.9,1.3,1.3,2.9,1.3,4.4v16c0,1.6-0.5,3.1-1.3,4.4
	l-10.3,15.5c-0.1,0.1-0.1,0.1,0,0.2C38.1,161.9,40.4,167.6,43.3,173.1L43.3,173.1z"/>
</svg>
